<svg width="434" height="434" viewBox="0 0 434 434" fill="none" xmlns="http://www.w3.org/2000/svg">
<rect width="434" height="434" fill="#B2F042"/>
<path d="M338 228.629H297.386C303.361 245.165 319.607 256.73 337.346 256.829V292C296.266 291.802 261.721 256.453 261.721 212.787V141H296.452V192.588H338V228.629Z" fill="#000926"/>
<path d="M129.832 278.275C142.44 287.207 157.474 292 172.884 292V258.689C164.273 258.689 155.872 256.01 148.827 251.019C141.782 246.028 136.435 238.967 133.517 230.8C130.598 222.632 130.25 213.756 132.519 205.381C134.788 197.007 139.565 189.542 146.197 184.005C152.829 178.469 160.993 175.13 169.577 174.443C178.161 173.757 186.745 175.758 194.16 180.172C200.69 184.06 206.032 189.653 209.639 196.335H173.349V230.568L196.605 230.58L206.837 230.568L213.994 230.58H246.454C249.327 215.316 247.461 199.531 241.108 185.376C234.756 171.221 224.228 159.387 210.959 151.488C197.69 143.588 182.327 140.008 166.966 141.236C151.605 142.464 136.993 148.44 125.125 158.348C113.256 168.257 104.708 181.616 100.647 196.602C96.5863 211.589 97.2098 227.474 102.433 242.091C107.656 256.707 117.224 269.343 129.832 278.275Z" fill="#000926"/>
</svg>
