<svg width="434" height="434" viewBox="0 0 434 434" fill="none" xmlns="http://www.w3.org/2000/svg">
<rect width="434" height="434" fill="#000926"/>
<path d="M336 228.629H295.386C301.361 245.165 317.607 256.73 335.346 256.829V292C294.266 291.802 259.721 256.453 259.721 212.787V141H294.452V192.588H336V228.629Z" fill="#B2F042"/>
<path d="M127.832 278.275C140.44 287.207 155.474 292 170.884 292V258.689C162.273 258.689 153.872 256.01 146.827 251.019C139.782 246.028 134.435 238.967 131.517 230.8C128.598 222.632 128.25 213.756 130.519 205.381C132.788 197.007 137.565 189.542 144.197 184.005C150.829 178.469 158.993 175.13 167.577 174.443C176.161 173.757 184.745 175.758 192.16 180.172C198.69 184.06 204.032 189.653 207.639 196.335H171.349V230.568L194.605 230.58L204.837 230.568L211.994 230.58H244.454C247.327 215.316 245.461 199.531 239.108 185.376C232.756 171.221 222.228 159.387 208.959 151.488C195.69 143.588 180.327 140.008 164.966 141.236C149.605 142.464 134.993 148.44 123.125 158.348C111.256 168.257 102.708 181.616 98.6474 196.602C94.5863 211.589 95.2098 227.474 100.433 242.091C105.656 256.707 115.224 269.343 127.832 278.275Z" fill="#B2F042"/>
</svg>
