<svg width="67" height="43" viewBox="0 0 67 43" fill="none" xmlns="http://www.w3.org/2000/svg">
<path d="M67.0001 24.6937H55.6621C57.3303 29.2723 61.8655 32.4745 66.8177 32.5019V42.2403C55.3494 42.1854 45.7056 32.3978 45.7056 20.3071V0.430176H55.4015V14.7141H67.0001V24.6937Z" fill="#B2F042"/>
<path d="M8.88647 38.44C12.4062 40.9132 16.6033 42.2403 20.905 42.2403V33.0167C18.5013 33.0167 16.156 32.2752 14.1892 30.8932C12.2224 29.5112 10.7298 27.5562 9.91505 25.2947C9.10029 23.0332 9.00302 20.5754 9.63652 18.2566C10.27 15.9378 11.6034 13.8709 13.4549 12.3379C15.3063 10.8048 17.5857 9.88023 19.9819 9.69027C22.3782 9.50031 24.7747 10.0542 26.8446 11.2764C28.6676 12.3529 30.159 13.9016 31.1658 15.7519H21.0349V25.2306L27.5271 25.2338L30.3837 25.2306L32.3816 25.2338H41.4433C42.2456 21.0075 41.7245 16.6366 39.9511 12.7174C38.1778 8.79813 35.2385 5.5214 31.5343 3.33414C27.8301 1.14689 23.5413 0.155622 19.253 0.495568C14.9647 0.835515 10.8857 2.49012 7.57236 5.23367C4.25903 7.97723 1.87276 11.6761 0.739054 15.8258C-0.394653 19.9755 -0.22059 24.3739 1.2375 28.421C2.69559 32.4681 5.36671 35.9669 8.88647 38.44Z" fill="#B2F042"/>
</svg>
