<?xml version="1.0" standalone="no"?>
<!DOCTYPE svg PUBLIC "-//W3C//DTD SVG 20010904//EN"
 "http://www.w3.org/TR/2001/REC-SVG-20010904/DTD/svg10.dtd">
<svg version="1.0" xmlns="http://www.w3.org/2000/svg"
 width="1072.000000pt" height="1072.000000pt" viewBox="0 0 1072.000000 1072.000000"
 preserveAspectRatio="xMidYMid meet">
<metadata>
Created by potrace 1.14, written by Peter Selinger 2001-2017
</metadata>
<g transform="translate(0.000000,1072.000000) scale(0.100000,-0.100000)"
fill="#000000" stroke="none">
<path d="M7424 8732 l-111 -3 2 -1702 c2 -936 5 -1724 8 -1752 3 -27 8 -81 12
-120 3 -38 8 -77 10 -85 2 -8 7 -35 10 -60 2 -25 7 -56 10 -70 3 -14 8 -41 11
-60 11 -58 12 -63 24 -115 7 -27 14 -59 16 -70 1 -11 12 -51 24 -90 12 -38 23
-77 25 -86 2 -9 20 -63 40 -120 20 -57 37 -108 39 -114 28 -97 181 -410 270
-555 25 -41 49 -83 52 -92 4 -10 10 -18 15 -18 5 0 9 -5 9 -11 0 -6 14 -28 30
-49 17 -21 30 -41 30 -44 0 -3 6 -14 14 -23 8 -10 51 -65 95 -122 199 -258
391 -447 681 -671 56 -43 255 -174 296 -195 21 -11 41 -23 44 -26 9 -12 201
-109 215 -109 7 0 15 -4 17 -10 3 -9 319 -140 338 -140 5 0 21 -5 37 -12 15
-6 34 -13 41 -15 6 -1 18 -5 25 -6 6 -2 19 -6 27 -9 35 -13 129 -39 175 -48
28 -6 59 -12 70 -15 11 -2 43 -9 70 -15 49 -10 67 -13 150 -24 22 -4 56 -8 75
-11 49 -8 138 -15 263 -20 l107 -5 0 780 0 780 -27 1 c-94 2 -211 13 -263 24
-14 3 -41 8 -60 11 -91 14 -297 78 -374 115 -22 10 -46 19 -53 19 -7 0 -13 5
-13 10 0 6 -6 10 -14 10 -17 0 -111 49 -174 91 -24 16 -45 29 -47 29 -8 0
-126 84 -162 115 -6 6 -30 26 -54 45 -67 56 -202 197 -245 256 -10 14 -26 34
-35 43 -52 51 -239 384 -239 424 0 9 -4 19 -10 22 -5 3 -10 13 -10 21 0 12
124 14 905 14 l905 0 -2 798 -3 797 -905 1 c-498 1 -914 2 -925 3 -20 1 -20 5
-20 1137 0 625 -2 1139 -5 1142 -5 7 -1210 10 -1436 4z"/>
<path d="M3118 8724 c-3 -2 -41 -6 -84 -9 -43 -2 -88 -6 -99 -9 -25 -5 -109
-17 -152 -21 -18 -2 -40 -6 -50 -9 -10 -3 -29 -7 -43 -10 -14 -3 -36 -8 -50
-10 -14 -3 -34 -8 -45 -10 -152 -31 -438 -127 -595 -198 -25 -12 -51 -21 -57
-21 -7 0 -13 -4 -13 -8 0 -4 -17 -13 -37 -20 -21 -6 -40 -15 -43 -18 -3 -4
-39 -24 -80 -45 -70 -36 -189 -104 -200 -116 -3 -3 -21 -14 -40 -24 -19 -11
-37 -22 -40 -25 -3 -3 -34 -26 -70 -50 -36 -25 -66 -48 -68 -53 -2 -4 -8 -8
-13 -8 -5 0 -19 -9 -31 -19 -13 -10 -64 -53 -115 -95 -103 -86 -277 -256 -368
-360 -33 -38 -66 -75 -73 -82 -6 -7 -12 -17 -12 -22 0 -6 -4 -12 -8 -14 -22
-9 -180 -235 -274 -393 -51 -84 -148 -277 -148 -292 0 -7 -4 -13 -9 -13 -5 0
-11 -10 -15 -23 -3 -13 -15 -45 -28 -73 -12 -27 -23 -51 -23 -54 0 -3 -11 -32
-23 -65 -27 -73 -33 -89 -34 -95 0 -3 -9 -30 -20 -60 -11 -30 -22 -66 -24 -79
-3 -14 -7 -28 -10 -33 -3 -4 -7 -16 -9 -26 -1 -9 -8 -37 -15 -62 -7 -25 -13
-52 -15 -60 -28 -138 -47 -244 -51 -280 -3 -25 -7 -56 -10 -70 -11 -63 -17
-182 -18 -390 -1 -235 6 -353 30 -500 3 -19 7 -48 10 -65 6 -45 24 -136 34
-170 4 -16 12 -48 16 -70 11 -57 10 -56 27 -105 8 -25 23 -74 32 -110 10 -36
22 -69 26 -75 5 -5 9 -19 9 -31 0 -13 4 -26 10 -29 5 -3 10 -13 10 -20 0 -8
11 -38 24 -67 13 -29 27 -64 31 -78 9 -29 175 -362 184 -370 3 -3 15 -22 26
-42 11 -21 23 -38 27 -38 5 0 8 -5 8 -11 0 -32 221 -328 355 -476 72 -80 208
-214 267 -265 141 -121 280 -228 297 -228 5 0 11 -4 13 -8 4 -11 110 -82 183
-123 33 -18 62 -36 65 -39 12 -16 316 -160 425 -202 137 -53 158 -61 165 -63
3 0 28 -8 55 -17 49 -17 228 -66 263 -73 9 -1 52 -10 94 -19 42 -9 94 -18 115
-20 21 -2 45 -6 53 -9 8 -3 49 -9 90 -13 41 -3 91 -8 110 -10 88 -8 280 -13
281 -6 1 4 2 336 3 738 l1 731 -45 2 c-431 12 -818 160 -1170 446 -38 31 -230
227 -230 235 0 4 -11 20 -25 36 -61 70 -185 264 -185 289 0 7 -3 15 -7 17 -34
15 -161 383 -178 518 -3 19 -7 46 -10 60 -17 80 -23 331 -11 445 29 269 101
499 232 735 39 72 117 193 134 210 3 3 25 30 50 60 25 30 62 72 82 93 21 21
38 43 38 48 0 5 3 9 8 9 4 0 25 17 47 38 263 245 646 429 995 477 195 27 410
25 573 -6 26 -5 51 -8 55 -7 17 3 275 -71 287 -83 5 -5 18 -9 30 -9 12 0 25
-4 31 -9 5 -5 26 -14 47 -21 20 -6 37 -16 37 -21 0 -5 6 -9 14 -9 16 0 142
-64 166 -85 8 -6 22 -14 31 -18 60 -21 343 -267 439 -382 70 -84 190 -262 190
-283 0 -5 6 -13 13 -16 13 -5 -7 -6 -188 -5 -60 0 -117 0 -125 0 -8 0 -116 0
-240 0 -124 0 -232 0 -240 0 -8 0 -179 0 -380 0 -436 0 -433 0 -440 -11 -4 -6
-5 -1478 -1 -1501 1 -7 3261 -7 3262 0 0 3 3 15 5 26 3 11 6 29 8 40 2 11 6
38 10 60 4 22 9 58 11 80 2 22 7 74 12 115 9 92 9 501 0 590 -4 36 -9 83 -11
105 -3 22 -9 69 -16 105 -6 36 -13 79 -15 95 -8 56 -13 80 -35 165 -12 47 -23
93 -26 103 -2 9 -7 27 -10 40 -3 12 -7 29 -9 37 -2 8 -4 16 -5 18 -2 1 -3 5
-5 10 -1 4 -4 14 -7 22 -4 8 -21 60 -39 115 -18 55 -39 109 -46 120 -6 11 -12
22 -12 25 0 8 -12 41 -26 75 -42 95 -88 192 -98 204 -6 7 -12 18 -13 25 -5 35
-259 432 -304 476 -3 3 -18 23 -35 45 -16 22 -34 45 -40 51 -5 7 -37 42 -70
80 -123 140 -330 337 -431 410 -14 10 -31 24 -38 29 -45 40 -183 135 -195 135
-5 0 -11 4 -13 9 -1 5 -39 30 -83 57 -44 26 -81 52 -83 56 -2 4 -12 8 -22 8
-10 0 -21 4 -25 9 -5 9 -207 110 -310 155 -106 47 -361 134 -455 155 -30 7
-62 15 -70 18 -8 3 -24 8 -35 9 -11 2 -40 8 -65 14 -25 5 -58 12 -75 15 -92
16 -157 25 -201 30 -27 3 -67 8 -89 11 -49 8 -541 15 -547 8z"/>
</g>
</svg>
